<svg width="40" height="40" viewBox="0 0 40 40" fill="none" xmlns="http://www.w3.org/2000/svg">
<g id="instragram">
<rect id="Rectangle 14" width="40" height="40" rx="8" fill="#F3F6F7"/>
<path id="&#239;&#133;&#173;" d="M19.75 15.0078C17.25 15.0078 15.2578 17.0391 15.2578 19.5C15.2578 22 17.25 23.9922 19.75 23.9922C22.2109 23.9922 24.2422 22 24.2422 19.5C24.2422 17.0391 22.2109 15.0078 19.75 15.0078ZM19.75 22.4297C18.1484 22.4297 16.8203 21.1406 16.8203 19.5C16.8203 17.8984 18.1094 16.6094 19.75 16.6094C21.3516 16.6094 22.6406 17.8984 22.6406 19.5C22.6406 21.1406 21.3516 22.4297 19.75 22.4297ZM25.4531 14.8516C25.4531 14.2656 24.9844 13.7969 24.3984 13.7969C23.8125 13.7969 23.3438 14.2656 23.3438 14.8516C23.3438 15.4375 23.8125 15.9062 24.3984 15.9062C24.9844 15.9062 25.4531 15.4375 25.4531 14.8516ZM28.4219 15.9062C28.3438 14.5 28.0312 13.25 27.0156 12.2344C26 11.2188 24.75 10.9062 23.3438 10.8281C21.8984 10.75 17.5625 10.75 16.1172 10.8281C14.7109 10.9062 13.5 11.2188 12.4453 12.2344C11.4297 13.25 11.1172 14.5 11.0391 15.9062C10.9609 17.3516 10.9609 21.6875 11.0391 23.1328C11.1172 24.5391 11.4297 25.75 12.4453 26.8047C13.5 27.8203 14.7109 28.1328 16.1172 28.2109C17.5625 28.2891 21.8984 28.2891 23.3438 28.2109C24.75 28.1328 26 27.8203 27.0156 26.8047C28.0312 25.75 28.3438 24.5391 28.4219 23.1328C28.5 21.6875 28.5 17.3516 28.4219 15.9062ZM26.5469 24.6562C26.2734 25.4375 25.6484 26.0234 24.9062 26.3359C23.7344 26.8047 21 26.6875 19.75 26.6875C18.4609 26.6875 15.7266 26.8047 14.5938 26.3359C13.8125 26.0234 13.2266 25.4375 12.9141 24.6562C12.4453 23.5234 12.5625 20.7891 12.5625 19.5C12.5625 18.25 12.4453 15.5156 12.9141 14.3438C13.2266 13.6016 13.8125 13.0156 14.5938 12.7031C15.7266 12.2344 18.4609 12.3516 19.75 12.3516C21 12.3516 23.7344 12.2344 24.9062 12.7031C25.6484 12.9766 26.2344 13.6016 26.5469 14.3438C27.0156 15.5156 26.8984 18.25 26.8984 19.5C26.8984 20.7891 27.0156 23.5234 26.5469 24.6562Z" fill="url(#paint0_linear_165_71)"/>
</g>
<defs>
<linearGradient id="paint0_linear_165_71" x1="20" y1="8" x2="20" y2="31" gradientUnits="userSpaceOnUse">
<stop stop-color="#515ECF"/>
<stop offset="0.369792" stop-color="#C53184"/>
<stop offset="0.75" stop-color="#F3673A"/>
<stop offset="1" stop-color="#DB2E7A"/>
</linearGradient>
</defs>
</svg>
