<svg width="40" height="40" viewBox="0 0 40 40" fill="none" xmlns="http://www.w3.org/2000/svg">
<g id="twitter">
<rect id="Rectangle 13" width="40" height="40" rx="8" fill="#F3F6F7"/>
<path id="&#239;&#130;&#153;" d="M27.9297 15.4375C28.7109 14.8516 29.4141 14.1484 29.9609 13.3281C29.2578 13.6406 28.4375 13.875 27.6172 13.9531C28.4766 13.4453 29.1016 12.6641 29.4141 11.6875C28.6328 12.1562 27.7344 12.5078 26.8359 12.7031C26.0547 11.8828 25 11.4141 23.8281 11.4141C21.5625 11.4141 19.7266 13.25 19.7266 15.5156C19.7266 15.8281 19.7656 16.1406 19.8438 16.4531C16.4453 16.2578 13.3984 14.6172 11.3672 12.1562C11.0156 12.7422 10.8203 13.4453 10.8203 14.2266C10.8203 15.6328 11.5234 16.8828 12.6562 17.625C11.9922 17.5859 11.3281 17.4297 10.7812 17.1172V17.1562C10.7812 19.1484 12.1875 20.7891 14.0625 21.1797C13.75 21.2578 13.3594 21.3359 13.0078 21.3359C12.7344 21.3359 12.5 21.2969 12.2266 21.2578C12.7344 22.8984 14.2578 24.0703 16.0547 24.1094C14.6484 25.2031 12.8906 25.8672 10.9766 25.8672C10.625 25.8672 10.3125 25.8281 10 25.7891C11.7969 26.9609 13.9453 27.625 16.2891 27.625C23.8281 27.625 27.9297 21.4141 27.9297 15.9844C27.9297 15.7891 27.9297 15.6328 27.9297 15.4375Z" fill="#1C9CEA"/>
</g>
</svg>
